# xmcd
#
# Track frame offsets: 
#        150
#        23632
#        42998
#        60431
#        78202
#        96769
#        114682
#        135429
#        154133
#        174281
#        193170
#        212649
#        232583
#        252062
#        267541
#        286040
#        306070
#
# Disc length: 4371 seconds
#
# Revision: 1
# Processed by: cddbd v1.5.2PL0 Copyright (c) Steve Scherf et al.
# Submitted via: ExactAudioCopy v0.99pb5
#
DISCID=d5111111
DTITLE=Фристайл - Любовное настроение
DYEAR=2006
DGENRE=Pop
TTITLE0=Ах, какая женщина
TTITLE1=Белая акация
TTITLE2=Метелица
TTITLE3=Теплый летний дождь
TTITLE4=Ты не пой, соловей
TTITLE5=Вишневый сад
TTITLE6=Бог с тобой
TTITLE7=Первый снег
TTITLE8=Догорает свеча
TTITLE9=Как птичья стая
TTITLE10=Завтра
TTITLE11=Моя первая любовь
TTITLE12=Рыжая девчонка
TTITLE13=Восточная песня
TTITLE14=Бог тебя накажет
TTITLE15=Прости меня, малыш
TTITLE16=Скатертью дорога
EXTD=
EXTT0=
EXTT1=
EXTT2=
EXTT3=
EXTT4=
EXTT5=
EXTT6=
EXTT7=
EXTT8=
EXTT9=
EXTT10=
EXTT11=
EXTT12=
EXTT13=
EXTT14=
EXTT15=
EXTT16=
PLAYORDER=
